<?xml version="1.0" standalone="no"?>
<!DOCTYPE svg PUBLIC "-//W3C//DTD SVG 1.1//EN" "http://www.w3.org/Graphics/SVG/1.1/DTD/svg11.dtd">
<svg id="Capa_1" data-name="Capa 1" xmlns="http://www.w3.org/2000/svg" viewBox="0 0 1200 1200" width="1200" height="1200">
  <defs>
    <style>
      .cls-1 {
        fill: #3baa35;
      }

      .cls-2 {
        fill: #39a935;
      }
    </style>
  </defs>
  <g>
    <path class="cls-2" d="M597.65,841.54c-.01,.06-.02,.13-.05,.18-12.26,21.21-24.53,42.42-36.79,63.63-.03,.05-.07,.1-.09,.14-.26,0-.37-.19-.5-.31-1.99-1.85-3.97-3.71-5.96-5.57-.36-.33-.71-.67-1.07-1-.08-.07-.14-.15-.22-.25,.1-.2,.2-.38,.3-.57,1.94-3.39,3.88-6.78,5.81-10.18,2.6-4.55,5.2-9.11,7.8-13.66,1.79-3.13,3.58-6.27,5.37-9.4,1.47-2.58,2.94-5.16,4.43-7.74,.18-.3,.26-.61,.3-.96,.07-.56,.03-1.1-.07-1.65-.28-1.53-1.59-2.6-3.17-2.6-2.49,0-4.97,.01-7.45,.02-4.55,.01-9.09,.02-13.64,.04-5.48,.02-10.96,.05-16.44,.07-.33,0-.67,.03-1-.03-.13-.25-.09-.48-.09-.71-.02-2.15-.04-4.29-.05-6.44,0-.4-.02-.81-.02-1.21,0-.2-.04-.38-.22-.51v-1.4c.59-.01,1.19-.03,1.78-.03,20.05,0,40.1,0,60.15,0,.29,0,.59-.06,.86,.06,.01,.04,.03,.06,.02,.08Z"/>
    <path class="cls-2" d="M638.1,910.46c-.44,.31-8.38,4.48-9.14,4.8-.22-.05-.28-.25-.37-.41-1.04-1.75-2.07-3.51-3.1-5.27-1.66-2.82-3.32-5.63-4.98-8.45-1.55-2.64-3.1-5.27-4.65-7.91-2.7-4.59-5.41-9.18-8.11-13.78-.47-.8-.96-1.6-1.41-2.42-.2-.37-.48-.63-.84-.84-.41-.24-.83-.42-1.29-.52-.81-.17-1.56,0-2.28,.37-.54,.27-.95,.66-1.27,1.2-3.76,6.39-7.54,12.76-11.31,19.14-1.66,2.81-3.33,5.63-4.99,8.44-1.9,3.22-3.8,6.44-5.71,9.65-.15,.25-.26,.53-.51,.74-.25,0-.44-.14-.65-.24-1.49-.72-2.98-1.45-4.47-2.17-1.05-.51-2.1-1.02-3.15-1.53-.22-.11-.46-.2-.64-.35,0-.08,0-.13,.02-.16,11.3-19.41,22.61-38.82,33.92-58.23,.04-.07,.1-.13,.15-.2,.24,.03,.29,.24,.39,.39,.56,.93,1.11,1.86,1.67,2.79,2.23,3.74,4.46,7.48,6.69,11.21,2.28,3.83,4.56,7.66,6.85,11.49,2.64,4.43,5.29,8.86,7.94,13.29,1.6,2.68,3.19,5.36,4.79,8.04,1.96,3.28,3.92,6.56,5.87,9.85,.2,.34,.43,.68,.6,1.07Z"/>
    <path class="cls-2" d="M671.61,851.54c-.16,.18-.39,.13-.59,.13-1,0-2,0-2.99,0-5.31-.01-10.62-.03-15.93-.04-5.37-.02-10.75-.03-16.12-.05-.96,0-1.91-.02-2.87-.02-1.7,0-3.01,1.12-3.26,2.8-.05,.36-.08,.72-.08,1.08,0,.54,.15,1.03,.42,1.5,2.59,4.44,5.16,8.89,7.73,13.33,2.18,3.77,4.36,7.53,6.54,11.3,2.74,4.72,5.48,9.44,8.21,14.16,.42,.72,.83,1.43,1.24,2.15,.06,.11,.11,.23,.17,.36-.49,.54-7.52,6.84-7.91,7.1-.2-.07-.25-.27-.34-.43-1.49-2.6-2.96-5.2-4.45-7.8-1.65-2.9-3.31-5.79-4.96-8.68-1.52-2.66-3.03-5.31-4.55-7.97-1.53-2.67-3.06-5.34-4.58-8.02-1.69-2.97-3.39-5.94-5.08-8.91-2.59-4.53-5.19-9.07-7.78-13.6-1.48-2.6-2.96-5.2-4.44-7.8-.1-.18-.25-.34-.24-.61,.11-.01,.21-.03,.31-.03,20.45,.01,40.9,.03,61.35,.05,.06,0,.11,.05,.19,.09,.01,.12,.04,.24,.04,.37,.06,2.45,.03,8.94-.05,9.56Z"/>
    <path class="cls-2" d="M618.52,796.83c-.02,8.36-6.84,14.7-14.69,14.64-7.97,.02-14.69-6.44-14.65-14.75,.04-8.07,6.61-14.61,14.76-14.58,8,.04,14.6,6.52,14.58,14.69Z"/>
    <path class="cls-2" d="M631.04,835.78c-.09,.02-.2,.05-.3,.05-3.61,0-7.22,.01-10.83,0-.57-.64-1.12-1.26-1.66-1.88-3.02-3.45-6.03-6.91-9.05-10.37-.14-.17-.26-.38-.54-.45-.03,.1-.07,.18-.07,.25-.01,.19,0,.38,0,.57,0,3.67,0,7.35,0,11.02,0,.25-.01,.5-.02,.72-.23,.19-.44,.13-.65,.13-1.57,0-3.14,0-4.71,0-.66,0-1.32,0-1.98,0-.21,0-.42-.01-.66-.02-.03-.14-.08-.26-.09-.38-.01-.15,0-.3,0-.44,0-5.78,0-11.55,0-17.33,0-.25,.01-.5,.02-.84,.29-.01,.5-.03,.71-.04,3.21,0,6.41,0,9.62-.01,.34,0,.55,.15,.76,.38,1.11,1.23,2.23,2.45,3.35,3.67,2.46,2.7,4.92,5.4,7.38,8.1,.13,.14,.26,.28,.4,.41,.05,.05,.14,.06,.26,.11,.03-.14,.06-.24,.06-.34,0-.42,0-.85,0-1.27,0-3.38,0-6.75,0-10.13v-.78c.15-.05,.26-.11,.38-.12,.17-.02,.34-.01,.51-.01,2.12,0,4.25,0,6.37,0,.25,0,.51-.04,.77,.09,.02,.09,.06,.19,.07,.29,.01,.15,0,.3,0,.45,0,5.8,0,11.59,0,17.39,0,.25,.05,.51-.1,.77Z"/>
    <path class="cls-2" d="M567.3,832.87c-.78,.74-1.71,1.25-2.71,1.63-1.2,.45-2.44,.72-3.7,.92-3.02,.48-6.05,.46-9.09,.35-1.74-.07-3.47-.29-5.16-.75-.99-.27-1.93-.63-2.77-1.25-1.36-1.01-2-2.38-2.03-4.06,0-.06,0-.13,.02-.19,.01-.04,.04-.07,.08-.15,.09-.01,.22-.05,.34-.05,2.46,0,4.93,0,7.39,0,.1,0,.21,.02,.38,.05,.02,.17,.04,.3,.04,.42,.02,.73,.38,1.24,1.01,1.57,.51,.27,1.06,.43,1.63,.53,1.37,.23,2.75,.26,4.12,.14,.72-.06,1.43-.2,2.08-.54,.19-.1,.37-.22,.52-.36,.51-.51,.46-1.24-.13-1.66-.27-.19-.6-.34-.92-.43-.76-.2-1.52-.37-2.3-.5-1.86-.32-3.73-.59-5.59-.92-1.46-.26-2.91-.6-4.31-1.1-.81-.28-1.57-.65-2.26-1.16-1.17-.87-1.77-2.03-1.77-3.49,0-1.12,.43-2.07,1.2-2.86,.7-.71,1.56-1.17,2.47-1.53,.93-.37,1.9-.62,2.88-.8,1.46-.27,2.94-.43,4.43-.47,1.76-.06,3.53-.05,5.29,.05,1.63,.09,3.25,.34,4.83,.79,.88,.25,1.73,.6,2.49,1.12,1.23,.84,1.83,2.02,1.9,3.5,0,.04-.01,.08-.02,.12,0,.02-.02,.03-.05,.08-.12,.01-.26,.03-.41,.04-2.43,.07-6.72,.04-7.35-.04-.05-.13-.1-.26-.15-.4-.14-.42-.42-.73-.81-.94-.72-.4-1.51-.58-2.32-.62-.99-.05-2-.03-2.99-.02-.51,0-1.01,.14-1.49,.32-.2,.07-.39,.17-.56,.29-.58,.41-.61,1.2-.05,1.63,.28,.21,.62,.38,.96,.47,.69,.2,1.4,.36,2.11,.49,1.71,.31,3.43,.57,5.15,.87,1.09,.19,2.17,.42,3.24,.66,1.1,.25,2.15,.64,3.14,1.2,.65,.37,1.22,.84,1.68,1.44,1.33,1.76,1.14,4.08-.46,5.6Z"/>
    <path class="cls-2" d="M667.41,835c-1.29-1.95-2.58-3.89-3.87-5.84-2.59-3.91-5.18-7.82-7.77-11.74-.43-.64-.3-.62-1.18-.62-2.59,0-5.18,0-7.77,0-1.12,0-.84-.11-1.43,.74-2.73,3.92-5.45,7.85-8.17,11.77-1.34,1.94-2.7,3.87-4.04,5.8-.14,.2-.32,.39-.38,.66,.2,.16,.42,.1,.62,.1,2.36,0,4.72,0,7.07,0,.08,0,.17,0,.26,0,.26,.01,.45-.08,.58-.31,.1-.19,.22-.36,.33-.55,.45-.75,.9-1.49,1.34-2.24,.14-.24,.32-.38,.61-.37,.19,.01,.38,0,.57,0h11.47c.17,0,.34,.01,.51,0,.34-.02,.55,.13,.71,.43,.43,.81,.87,1.6,1.33,2.39,.37,.65,.23,.65,1.08,.65h7.9c.15,0,.3,0,.44-.01,.08,0,.15-.05,.24-.08-.07-.32-.28-.55-.44-.79Zm-13.48-6.67c-.1,0-.21,0-.32,0-2.4,0-4.8,0-7.19,0-.17,0-.33-.02-.58-.03,.05-.15,.06-.24,.1-.31,1.35-2.16,2.7-4.31,4.06-6.47,.03-.05,.09-.07,.14-.11,.22,.02,.27,.2,.36,.34,.49,.82,.97,1.64,1.46,2.47,.66,1.11,1.31,2.23,1.97,3.34,.12,.2,.26,.39,.29,.59-.06,.16-.17,.15-.28,.16Z"/>
    <path class="cls-2" d="M596,835.55c0,.06-.03,.12-.06,.22-.11,.02-.23,.05-.35,.06-.17,.01-.34,0-.51,0-7.16,0-14.31,0-21.47,0-.27,0-.55,.04-.77-.05-.05-.06-.07-.07-.08-.09,0-.02-.01-.04-.02-.06,0-.15-.02-.3-.02-.44,0-6.03,0-12.06,0-18.1,0-.06,.02-.12,.04-.22,.11-.03,.22-.08,.34-.09,.19-.02,.38,0,.57,0,6.95,0,13.89,0,20.84,0,.29,0,.59-.04,.9,.08,.11,.63,.04,1.27,.05,1.9,.01,.63,0,1.27,0,1.92-.15,.04-.27,.1-.39,.11-.21,.02-.43,.01-.64,.01h-12.17c-.21,0-.43,0-.64,0-.37,.02-.45,.1-.46,.46-.01,.42,0,.85,0,1.27,0,.34,0,.68,0,1.02,0,.1,.03,.2,.06,.33,.12,.03,.24,.08,.36,.09,.21,.02,.43,0,.64,0,3.78,0,7.56,0,11.34,0,.25,0,.51-.03,.76,.06,.02,.09,.06,.17,.06,.25,0,1.1,0,2.21,0,3.31,0,.08-.04,.16-.07,.27-.15,.02-.29,.06-.43,.06-.27,.01-.55,0-.83,0-3.65,0-7.31,0-10.96,0-.29,0-.6-.07-.88,.14-.02,.09-.05,.19-.05,.3,0,1.02,0,2.04,0,3.06,0,.08,.04,.16,.06,.27,.12,.03,.24,.07,.36,.07,.21,.01,.43,0,.64,0h12.87c.25,0,.5,0,.77,.01,.04,.1,.09,.18,.09,.25,0,1.17,0,2.34,0,3.5Z"/>
  </g>
  <path class="cls-1" d="M664.5,431.93c-13.06,1.97-26.65,.36-40.01,.36h-57.9c0-35.75,.03-69.46-.01-103.18-.02-16.78-13.69-30.47-30.5-30.48-47.11-.05-94.22-.04-141.33-.01-19.06,.02-31.17,12.15-31.17,31.23,.01,45.99,.67,91.99-.17,137.96-.37,20.28,13.11,33.59,32.58,33.61,90.51,.11,181.03-.03,271.54,.13,15.41,.03,29.54-13.01,32.58-28.01,4.31-21.22-13.76-44.9-35.61-41.61Zm-167.98-.34h-62.88v-62.86h62.88v62.86Z"/>
  <path class="cls-1" d="M835.66,467.15c.08,13.91-6.58,24.97-17.36,30.5-13.05,6.7-28.98,6.05-40.86-3.32-6.03-4.76-10.27-15.14-10.6-23.18-1.25-29.98-.54-60.04-.57-90.07v-13.41c-35.02,0-68-.45-100.96,.17-18.19,.34-28.41-10.19-32.14-22.35-5.42-17.71,1.82-36.69,15.3-43.92,3.71-2,8.35-3.16,12.58-3.18,48.57-.21,97.15-.19,145.72-.1,14.68,.03,28.84,14.12,28.86,28.72,.05,46.72-.24,93.43,.03,140.14Z"/>
  <path class="cls-1" d="M652,193.52c-3.69,1.9-8.18,3-12.34,3.12-7.81,.23-15.63,.24-23.45,.21-3.67-.02-7.33-.04-10.99-.05h-.04c-1.84-.01-3.68-.02-5.52-.02-3.87-.01-7.73-.01-11.6-.01-8.36-.01-16.72-.01-25.08,.01-20.31,.06-31.17-11.32-31.87-31.89-.49-14.49,1.78-27.24,15.85-34.47,4.07-2.1,9.09-3.18,13.7-3.23,25.93-.3,51.86-.26,77.79-.11,17.47,.11,28.63,12.29,29.52,30.06,.75,15.13-1,28.64-15.97,36.38Z"/>
  <path class="cls-1" d="M969.16,572.4c.12-148.76,.13-297.53,.46-446.29,.07-35.75-15.37-62.62-44.53-82.18-7.65-5.13-15.9-9.37-23.88-14.01H300.05c-2.91,1.76-5.65,3.92-8.75,5.22-33.66,14.15-60.18,51.66-59.75,86.62,.7,57.49,.26,114.98,.3,172.47,.08,94.56,.17,189.13,.25,283.69-.08,94.56-.17,189.12-.25,283.68-.04,57.49,.4,114.98-.3,172.47-.43,34.96,26.09,72.47,59.75,86.62,3.1,1.3,5.84,3.46,8.75,5.22H901.21c7.98-4.64,16.23-8.88,23.88-14.01,29.16-19.56,44.6-46.43,44.53-82.18-.33-148.76-.34-297.53-.46-446.29v-11.03Zm-69.6,441.6c-.14,14.87-2.75,29.84-17.85,37.23-7.57,3.72-16.66,6.08-25.06,6.1-170.65,.34-341.29,.44-511.93,.07-29.07-.06-42.97-13.63-43.05-44.41-.36-145.03-.35-290.04-.47-435.07,.12-145.03,.11-290.05,.47-435.08,.08-30.78,13.98-44.35,43.05-44.41,170.64-.37,341.28-.27,511.93,.07,8.4,.02,17.49,2.38,25.06,6.1,15.1,7.39,17.71,22.36,17.85,37.23,.42,43.76,.2,87.53,.23,131.29,.09,101.61,.18,203.2,.27,304.8-.09,101.59-.18,203.19-.27,304.79-.03,43.76,.19,87.53-.23,131.29Z"/>
  <path class="cls-1" d="M819.58,742.97c-3.7,2.02-8.33,3.2-12.56,3.25h-.04c4.08-.67,8.08-2,11.85-3.93,10.77-5.53,17.43-16.59,17.35-30.5-.01-1.99-.02-3.98-.03-5.97,2.07,15.52-4.86,30.79-16.57,37.15Z"/>
  <path class="cls-1" d="M836.15,705.82c-.22-44.72,.05-89.44,0-134.17-.02-14.6-14.17-28.69-28.84-28.72-48.55-.09-97.1-.11-145.65,.1-4.23,.02-8.87,1.18-12.57,3.18-5.28,2.83-9.6,7.46-12.57,13.12-3.21,5.33-4.95,11.79-4.87,19.01,.51,46.7,.45,93.41,.74,140.13,.09,14.6,14.31,28.62,28.99,28.58,44.53-.15,89.07-.34,133.61-.72,4-.04,7.99-.07,11.99-.11,4.08-.67,8.08-2,11.85-3.93,10.77-5.53,17.43-16.59,17.35-30.5-.01-1.99-.02-3.98-.03-5.97Zm-134.64-28.35l-.07-13.41c-.1-17.29,.04-34.6-.09-51.9,21.34-.04,42.99,.15,65.48,.15v13.41c.02,17.19-.21,34.38-.16,51.57-21.23,.14-42.78,.06-65.16,.18Z"/>
  <path class="cls-1" d="M806.98,746.22c-3.98,.66-8.03,.71-11.99,.11,4-.04,7.99-.07,11.99-.11Z"/>
  <path class="cls-1" d="M567.15,705.82c-.22-44.72,.05-89.44,0-134.17-.02-14.6-14.17-28.69-28.84-28.72-48.55-.09-97.1-.11-145.65,.1-4.23,.02-8.87,1.18-12.57,3.18-5.28,2.83-9.6,7.46-12.57,13.12-3.21,5.33-4.95,11.79-4.87,19.01,.51,46.7,.45,93.41,.74,140.13,.09,14.6,14.31,28.62,28.99,28.58,44.53-.15,89.07-.34,133.61-.72,4-.04,7.99-.07,11.99-.11,4.08-.67,8.08-2,11.85-3.93,10.77-5.53,17.43-16.59,17.35-30.5-.01-1.99-.02-3.98-.03-5.97Zm-134.64-28.35l-.07-13.41c-.1-17.29,.04-34.6-.09-51.9,21.34-.04,42.99,.15,65.48,.15v13.41c.02,17.19-.21,34.38-.16,51.57-21.23,.14-42.78,.06-65.16,.18Z"/>
  <path class="cls-1" d="M550.58,742.97c-3.7,2.02-8.33,3.2-12.56,3.25h-.04c4.08-.67,8.08-2,11.85-3.93,10.77-5.53,17.43-16.59,17.35-30.5-.01-1.99-.02-3.98-.03-5.97,2.07,15.52-4.86,30.79-16.57,37.15Z"/>
  <path class="cls-1" d="M537.98,746.22c-3.98,.66-8.03,.71-11.99,.11,4-.04,7.99-.07,11.99-.11Z"/>
  <path class="cls-1" d="M655.68,1034.28c-3.69,1.9-8.18,3-12.34,3.12-7.81,.23-15.63,.24-23.45,.21-3.67-.02-7.33-.04-10.99-.05h-.04c-1.84-.01-3.68-.02-5.52-.02-3.87-.01-7.73-.01-11.6-.01-8.36-.01-16.72-.01-25.08,.01-20.31,.06-31.17-11.32-31.87-31.89-.49-14.49,1.78-27.24,15.85-34.47,4.07-2.1,9.09-3.18,13.7-3.23,25.93-.3,51.86-.26,77.79-.11,17.47,.11,28.63,12.29,29.52,30.06,.75,15.13-1,28.64-15.97,36.38Z"/>
</svg>